# xmcd CD database file
#
# Track frame offsets:
#	150
#	16186
#	37156
#	55143
#	64515
#	80384
#	100935
#	123711
#	135498
#	150157
#	168430
#	190988
#	212801
#	228475
#	246292
#
# Disc length: 3633 seconds
#
# Revision: 1
# Processed by: cddbd v1.5.1PL0 Copyright (c) Steve Scherf et al.
# Submitted via: CDex 1.40Release
#
DISCID=c50e2f0f
DTITLE=Georg Danzer - Master Series
DYEAR=2000
DGENRE=Austriapop
TTITLE0=Die Moritat vom Frauenmˆrder Wurm
TTITLE1=Weiﬂe Pferde
TTITLE2=Anplaggd
TTITLE3=I bin a Kniera
TTITLE4=Laﬂ mi amoi no d'Sunn aufgeh' segn
TTITLE5=Leuchtturm
TTITLE6=Groﬂe Dinge
TTITLE7=Mei'Gitar'
TTITLE8=Doppelg‰nger
TTITLE9=Ganz Wien tr‰umt von Kokain
TTITLE10=Griechenland
TTITLE11=Atlantis
TTITLE12=Der legend‰re Wixer-Blues vom 7. Okt. 1976
TTITLE13=Ruhe vor dem Sturm
TTITLE14=Frieden
EXTD=YEAR: 2000
EXTT0=
EXTT1=
EXTT2=
EXTT3=
EXTT4=
EXTT5=
EXTT6=
EXTT7=
EXTT8=
EXTT9=
EXTT10=
EXTT11=
EXTT12=
EXTT13=
EXTT14=
PLAYORDER=
